<?xml version="1.0" encoding="utf-8"?>
<!-- Generator: Adobe Illustrator 27.9.0, SVG Export Plug-In . SVG Version: 6.00 Build 0)  -->
<svg version="1.1" xmlns="http://www.w3.org/2000/svg" xmlns:xlink="http://www.w3.org/1999/xlink" x="0px" y="0px"
	 viewBox="0 0 850.39 850.39" style="enable-background:new 0 0 850.39 850.39;" xml:space="preserve">
<style type="text/css">
	.st0{fill:#111110;}
	.st1{fill:url(#SVGID_1_);}
	.st2{fill:none;stroke:#FFFFFF;stroke-width:10;stroke-miterlimit:10;}
	.st3{fill:#FFFFFF;}
	.st4{font-family:'FranklinGothic-Heavy';}
	.st5{font-size:67px;}
</style>
<g id="Слой_2">
	<rect x="-4.3" class="st0" width="854.69" height="850.39"/>
</g>
<g id="Слой_1">
	<radialGradient id="SVGID_1_" cx="425.1968" cy="379.993" r="252.4255" gradientUnits="userSpaceOnUse">
		<stop  offset="6.658799e-03" style="stop-color:#E30613"/>
		<stop  offset="1" style="stop-color:#A90F09"/>
	</radialGradient>
	<path class="st1" d="M582.73,632.42H267.66c-52.41,0-94.89-42.49-94.89-94.89V222.46c0-52.41,42.49-94.89,94.89-94.89h315.06
		c52.41,0,94.89,42.49,94.89,94.89v315.06C677.62,589.93,635.14,632.42,582.73,632.42z"/>
	<path class="st2" d="M396.64,570.89H289.41c-9.53,0-17.26-7.73-17.26-17.26V446.4c0-9.53,7.73-17.26,17.26-17.26h107.23
		c9.53,0,17.26,7.73,17.26,17.26v107.23C413.9,563.16,406.17,570.89,396.64,570.89z"/>
	<path class="st2" d="M558.71,570.89H451.43c-9.52,0-17.23-7.72-17.23-17.23V446.38c0-9.52,7.72-17.23,17.23-17.23h107.28
		c9.52,0,17.23,7.72,17.23,17.23v107.28C575.94,563.17,568.23,570.89,558.71,570.89z"/>
	<path class="st2" d="M396.62,409.84H289.43c-9.54,0-17.28-7.74-17.28-17.28V285.38c0-9.54,7.73-17.28,17.28-17.28h107.19
		c9.54,0,17.28,7.73,17.28,17.28v107.19C413.9,402.11,406.16,409.84,396.62,409.84z"/>
	<path class="st2" d="M558.69,409.84H451.45c-9.53,0-17.26-7.73-17.26-17.26V285.35c0-9.53,7.73-17.26,17.26-17.26h107.23
		c9.53,0,17.26,7.73,17.26,17.26v107.23C575.94,402.12,568.22,409.84,558.69,409.84z"/>
	<path class="st2" d="M477.75,488.87H370.52c-9.53,0-17.26-7.73-17.26-17.26V364.38c0-9.53,7.73-17.26,17.26-17.26h107.23
		c9.53,0,17.26,7.73,17.26,17.26v107.23C495.01,481.14,487.28,488.87,477.75,488.87z"/>
	<path class="st2" d="M418.79,158.41L226.66,280.24c-3.99,2.53-2.19,8.69,2.52,8.69h383.73c4.72,0,6.51-6.17,2.52-8.69
		L423.31,158.41C421.93,157.54,420.17,157.54,418.79,158.41z"/>
	<text transform="matrix(1 0 0 1 207.3031 702.2816)" class="st3 st4 st5">TЕПЛА ОСЕЛЯ</text>
</g>
</svg>
